<svg xmlns="http://www.w3.org/2000/svg" width="16" height="13" viewBox="0 0 16 13">
  <defs>
    <style>
      .cls-1 {
        fill: #fff;
        fill-rule: evenodd;
      }
    </style>
  </defs>
  <path id="Forma_1" data-name="Forma 1" class="cls-1" d="M1720.57,5330a1.331,1.331,0,0,0,.94-0.37l-4.54-4.68c-0.1.08-.21,0.16-0.31,0.23-0.34.26-.61,0.46-0.83,0.6a4.548,4.548,0,0,1-.84.45,2.5,2.5,0,0,1-.98.22h-0.02a2.5,2.5,0,0,1-.98-0.22,5.04,5.04,0,0,1-.85-0.45c-0.21-.14-0.48-0.34-0.82-0.6-0.1-.07-0.2-0.15-0.31-0.23l-4.54,4.68a1.331,1.331,0,0,0,.94.37h13.14Zm-13.67-8.01a4.6,4.6,0,0,1-.9-0.8v7.13l3.99-4.13C1709.2,5323.61,1708.17,5322.88,1706.9,5321.99Zm14.21,0c-1.22.86-2.25,1.59-3.1,2.2l3.99,4.13v-7.13A4.884,4.884,0,0,1,1721.11,5321.99Zm-0.54-4.99h-13.14a1.263,1.263,0,0,0-1.06.48,1.887,1.887,0,0,0-.37,1.2,2.166,2.166,0,0,0,.49,1.26,4.652,4.652,0,0,0,1.05,1.07c0.2,0.14.81,0.58,1.83,1.31,0.55,0.4,1.02.74,1.43,1.04,0.35,0.25.66,0.47,0.91,0.65,0.02,0.02.07,0.05,0.13,0.1s0.14,0.1.24,0.18c0.2,0.14.36,0.26,0.49,0.35s0.28,0.19.46,0.3a2.978,2.978,0,0,0,.51.25,1.585,1.585,0,0,0,.45.08h0.02a1.585,1.585,0,0,0,.45-0.08,2.978,2.978,0,0,0,.51-0.25c0.18-.11.33-0.21,0.46-0.3s0.29-.21.49-0.35q0.15-.12.24-0.18c0.06-.05.11-0.08,0.13-0.1,0.2-.14.5-0.36,0.91-0.65,0.74-.53,1.83-1.32,3.27-2.35a4.369,4.369,0,0,0,1.09-1.14,2.508,2.508,0,0,0,.44-1.39,1.457,1.457,0,0,0-.42-1.05A1.409,1.409,0,0,0,1720.57,5317Z" transform="translate(-1706 -5317)"/>
</svg>
