<svg xmlns="http://www.w3.org/2000/svg" width="32" height="18" viewBox="0 0 32 18">
  <defs>
    <style>
      .cls-1 {
        fill: #fff;
        fill-rule: evenodd;
      }
    </style>
  </defs>
  <path id="Forma_1" data-name="Forma 1" class="cls-1" d="M2827.44,5247.56a0.7,0.7,0,0,0-.4.14l-9.4,8.17a0.985,0.985,0,0,1-.66.25,1.01,1.01,0,0,1-.67-0.25l-9.12-7.89a0.677,0.677,0,0,0-.48-0.22,0.585,0.585,0,0,0-.56.69v12.12a1.43,1.43,0,0,0,1.43,1.43h19.01a1.407,1.407,0,0,0,1.41-1.43v-12.3A0.6,0.6,0,0,0,2827.44,5247.56Zm-20.43-2.45,9.17,7.82a1.2,1.2,0,0,0,.8.32,1.164,1.164,0,0,0,.75-0.28l9.28-8,0.02-.01a0.632,0.632,0,0,0,.26-0.68,0.461,0.461,0,0,0-.43-0.28h-19.55a0.571,0.571,0,0,0-.53.34,0.672,0.672,0,0,0,.22.76Zm-4.07,3.6h-2.6a0.869,0.869,0,0,0-.87.86v0.6a0.869,0.869,0,0,0,.87.86h2.6a0.86,0.86,0,0,0,.86-0.86v-0.6A0.86,0.86,0,0,0,2802.94,5248.71Zm0,3.78h-4.34a0.86,0.86,0,0,0-.87.85v0.6a0.862,0.862,0,0,0,.87.86h4.34a0.854,0.854,0,0,0,.86-0.86v-0.6A0.851,0.851,0,0,0,2802.94,5252.49Zm0,3.77h-6.07a0.86,0.86,0,0,0-.87.85v0.6a0.862,0.862,0,0,0,.87.86h6.07a0.854,0.854,0,0,0,.86-0.86v-0.6A0.851,0.851,0,0,0,2802.94,5256.26Z" transform="translate(-2796 -5244)"/>
</svg>
