<svg xmlns="http://www.w3.org/2000/svg" width="16" height="16" viewBox="0 0 16 16">
  <defs>
    <style>
      .cls-1 {
        fill: #fff;
        fill-rule: evenodd;
      }
    </style>
  </defs>
  <path class="cls-1" d="M1718.16,5295.58a1.125,1.125,0,0,0-1.69,0c-0.4.4-.79,0.79-1.18,1.19a0.241,0.241,0,0,1-.33.06c-0.26-.14-0.53-0.25-0.77-0.41a12.286,12.286,0,0,1-2.97-2.69,7.126,7.126,0,0,1-1.06-1.7,0.262,0.262,0,0,1,.06-0.32c0.4-.38.78-0.77,1.17-1.17a1.126,1.126,0,0,0,0-1.73l-0.93-.93c-0.32-.32-0.64-0.65-0.96-0.96a1.125,1.125,0,0,0-1.69,0c-0.4.39-.79,0.8-1.19,1.18a1.94,1.94,0,0,0-.61,1.3,5.53,5.53,0,0,0,.43,2.38,14.23,14.23,0,0,0,2.56,4.26,15.708,15.708,0,0,0,5.25,4.11,7.524,7.524,0,0,0,2.9.84,2.154,2.154,0,0,0,1.83-.69c0.34-.38.72-0.73,1.08-1.09a1.129,1.129,0,0,0,.01-1.72C1719.44,5296.85,1718.8,5296.22,1718.16,5295.58Zm-0.63-2.65,1.23-.21a5.517,5.517,0,0,0-1.54-2.96,5.385,5.385,0,0,0-3.13-1.56l-0.17,1.23A4.28,4.28,0,0,1,1717.53,5292.93Zm1.92-5.34a9.068,9.068,0,0,0-5.19-2.59l-0.18,1.24a7.791,7.791,0,0,1,4.49,2.23,7.874,7.874,0,0,1,2.2,4.25l1.23-.21A9.156,9.156,0,0,0,1719.45,5287.59Z" transform="translate(-1706 -5285)"/>
</svg>
