<svg xmlns="http://www.w3.org/2000/svg" width="33" height="32" viewBox="0 0 33 32">
  <defs>
    <style>
      .cls-1 {
        fill: #aaa;
        fill-rule: evenodd;
      }
    </style>
  </defs>
  <path id="Forma_1" data-name="Forma 1" class="cls-1" d="M2776.48,4227.94l-0.56-1.32c1.93-4.3,1.8-4.43,1.42-4.8l-2.46-2.38-0.24-.2h-0.29c-0.15,0-.59,0-4.33,1.67l-1.38-.54c-1.78-4.36-1.96-4.36-2.48-4.36h-3.47c-0.52,0-.72,0-2.37,4.37l-1.37.55a23.74,23.74,0,0,0-4.41-1.59l-0.33.01-2.65,2.57c-0.4.37-.54,0.5,1.5,4.74l-0.56,1.31c-4.51,1.72-4.51,1.89-4.51,2.42v3.36c0,0.53,0,.71,4.52,2.32l0.56,1.31c-1.92,4.3-1.79,4.43-1.42,4.8l2.46,2.38,0.24,0.2h0.29c0.15,0,.59,0,4.34-1.68l1.37,0.56c1.78,4.35,1.96,4.35,2.48,4.35h3.47c0.54,0,.72,0,2.38-4.37l1.38-.55a22.705,22.705,0,0,0,4.4,1.59l0.33-.01,2.66-2.58c0.38-.38.52-0.51-1.51-4.73l0.56-1.31c4.51-1.73,4.51-1.91,4.51-2.42v-3.36C2781.01,4229.72,2781.01,4229.53,2776.48,4227.94Zm-11.98,9.66a5.6,5.6,0,1,1,5.77-5.6A5.7,5.7,0,0,1,2764.5,4237.6Z" transform="translate(-2748 -4216)"/>
</svg>
