<svg xmlns="http://www.w3.org/2000/svg" width="49" height="61" viewBox="0 0 49 61">
  <defs>
    <style>
      .cls-1 {
        fill: #f88600;
        fill-rule: evenodd;
      }
    </style>
  </defs>
  <path id="Forma_1" data-name="Forma 1" class="cls-1" d="M2400.79,1682h-24.18a6.458,6.458,0,0,0-6.4,6.49v24.01h-0.63a2.6,2.6,0,0,0-2.58,2.62v15.86a2.6,2.6,0,0,0,2.58,2.62h0.63v2.91a6.451,6.451,0,0,0,6.4,6.49h32.99a6.451,6.451,0,0,0,6.4-6.49v-39.14Zm-29.52,35.3a21.238,21.238,0,0,1,3.32-.23,6.889,6.889,0,0,1,4.44,1.17,4.9,4.9,0,0,1,1.84,4.15,5.642,5.642,0,0,1-1.8,4.46,7.763,7.763,0,0,1-5.01,1.42,20.934,20.934,0,0,1-2.79-.17v-10.8h0Zm38.33,21.72h-32.99a2.493,2.493,0,0,1-2.48-2.51v-2.91h30.75a2.6,2.6,0,0,0,2.58-2.62v-15.86a2.6,2.6,0,0,0-2.58-2.62h-30.75v-24.01a2.5,2.5,0,0,1,2.48-2.51l22.71-.02v8.5a4.469,4.469,0,0,0,4.44,4.5l8.22-.02,0.1,37.57A2.5,2.5,0,0,1,2409.6,1739.02Zm-27.61-16.29c0-3.3,2.08-5.76,5.28-5.76,3.34,0,5.16,2.53,5.16,5.57,0,3.6-2.16,5.79-5.34,5.79C2383.87,1728.33,2381.99,1725.87,2381.99,1722.73Zm17.61,3.53a6.275,6.275,0,0,0,2.05-.36l0.37,1.94a6.881,6.881,0,0,1-2.79.48c-3.75,0-5.69-2.37-5.69-5.5a5.576,5.576,0,0,1,5.93-5.85,6.273,6.273,0,0,1,2.67.49l-0.49,1.97a5.343,5.343,0,0,0-2.07-.4A3.618,3.618,0,0,0,2399.6,1726.26Zm-21.34-3.79a3.125,3.125,0,0,0-3.41-3.49,5.021,5.021,0,0,0-1.12.1v7.19a4.418,4.418,0,0,0,.86.05C2376.81,1726.34,2378.26,1725.1,2378.26,1722.47Zm11.57,0.15c0-1.98-.93-3.68-2.62-3.68-1.66,0-2.63,1.61-2.63,3.74,0,2.16,1,3.68,2.64,3.68C2388.88,1726.36,2389.83,1724.76,2389.83,1722.62Z" transform="translate(-2367 -1682)"/>
</svg>
